<svg width="18" height="14" viewBox="0 0 18 14" fill="none" xmlns="http://www.w3.org/2000/svg">
<mask id="path-1-inside-1_138_1952" fill="white">
<path d="M16 0H2C1.73478 0 1.48043 0.105357 1.29289 0.292893C1.10536 0.48043 1 0.734784 1 1V11C1 11.2652 1.10536 11.5196 1.29289 11.7071C1.48043 11.8946 1.73478 12 2 12H16C16.2652 12 16.5196 11.8946 16.7071 11.7071C16.8946 11.5196 17 11.2652 17 11V1C17 0.734784 16.8946 0.48043 16.7071 0.292893C16.5196 0.105357 16.2652 0 16 0ZM16 11H2V1H16V11Z"/>
</mask>
<path d="M16 0H2C1.73478 0 1.48043 0.105357 1.29289 0.292893C1.10536 0.48043 1 0.734784 1 1V11C1 11.2652 1.10536 11.5196 1.29289 11.7071C1.48043 11.8946 1.73478 12 2 12H16C16.2652 12 16.5196 11.8946 16.7071 11.7071C16.8946 11.5196 17 11.2652 17 11V1C17 0.734784 16.8946 0.48043 16.7071 0.292893C16.5196 0.105357 16.2652 0 16 0ZM16 11H2V1H16V11Z" fill="white"/>
<path d="M16 0V-1.8V0ZM2 0L2 -1.8L2 0ZM1 1H-0.8H1ZM1 11L-0.8 11L1 11ZM16 11V12.8H17.8V11H16ZM2 11H0.2V12.8H2V11ZM2 1V-0.8H0.2V1H2ZM16 1H17.8V-0.8H16V1ZM16 -1.8H2V1.8H16V-1.8ZM2 -1.8C1.25739 -1.8 0.545203 -1.505 0.020101 -0.979899L2.56569 1.56569C2.41566 1.71571 2.21217 1.8 2 1.8L2 -1.8ZM0.020101 -0.979899C-0.505001 -0.454797 -0.8 0.257394 -0.8 1L2.8 1C2.8 1.21217 2.71571 1.41566 2.56569 1.56569L0.020101 -0.979899ZM-0.8 1V11H2.8V1H-0.8ZM-0.8 11C-0.8 11.7426 -0.505001 12.4548 0.020101 12.9799L2.56569 10.4343C2.71571 10.5843 2.8 10.7878 2.8 11L-0.8 11ZM0.020101 12.9799C0.545202 13.505 1.25739 13.8 2 13.8V10.2C2.21217 10.2 2.41566 10.2843 2.56569 10.4343L0.020101 12.9799ZM2 13.8H16V10.2H2V13.8ZM16 13.8C16.7426 13.8 17.4548 13.505 17.9799 12.9799L15.4343 10.4343C15.5843 10.2843 15.7878 10.2 16 10.2V13.8ZM17.9799 12.9799C18.505 12.4548 18.8 11.7426 18.8 11H15.2C15.2 10.7878 15.2843 10.5843 15.4343 10.4343L17.9799 12.9799ZM18.8 11V1H15.2V11H18.8ZM18.8 1C18.8 0.257397 18.505 -0.454795 17.9799 -0.979899L15.4343 1.56569C15.2843 1.41565 15.2 1.21217 15.2 1H18.8ZM17.9799 -0.979899C17.4548 -1.505 16.7426 -1.8 16 -1.8L16 1.8C15.7878 1.8 15.5843 1.71572 15.4343 1.56569L17.9799 -0.979899ZM16 9.2H2V12.8H16V9.2ZM3.8 11V1H0.2V11H3.8ZM2 2.8H16V-0.8H2V2.8ZM14.2 1V11H17.8V1H14.2Z" fill="white" mask="url(#path-1-inside-1_138_1952)"/>
<mask id="path-3-inside-2_138_1952" fill="white">
<path d="M4.5 4H13.5C13.6326 4 13.7598 3.94732 13.8536 3.85355C13.9473 3.75979 14 3.63261 14 3.5C14 3.36739 13.9473 3.24021 13.8536 3.14645C13.7598 3.05268 13.6326 3 13.5 3H4.5C4.36739 3 4.24021 3.05268 4.14645 3.14645C4.05268 3.24021 4 3.36739 4 3.5C4 3.63261 4.05268 3.75979 4.14645 3.85355C4.24021 3.94732 4.36739 4 4.5 4Z"/>
</mask>
<path d="M4.5 4H13.5C13.6326 4 13.7598 3.94732 13.8536 3.85355C13.9473 3.75979 14 3.63261 14 3.5C14 3.36739 13.9473 3.24021 13.8536 3.14645C13.7598 3.05268 13.6326 3 13.5 3H4.5C4.36739 3 4.24021 3.05268 4.14645 3.14645C4.05268 3.24021 4 3.36739 4 3.5C4 3.63261 4.05268 3.75979 4.14645 3.85355C4.24021 3.94732 4.36739 4 4.5 4Z" fill="white"/>
<path d="M4 3.5L5.8 3.5L4 3.5ZM4.5 5.8H13.5V2.2H4.5V5.8ZM13.5 5.8C14.11 5.8 14.695 5.55768 15.1263 5.12635L12.5808 2.58076C12.8246 2.33696 13.1552 2.2 13.5 2.2V5.8ZM15.1263 5.12635C15.5577 4.69501 15.8 4.10999 15.8 3.5H12.2C12.2 3.15522 12.337 2.82456 12.5808 2.58076L15.1263 5.12635ZM15.8 3.5C15.8 2.89001 15.5577 2.30499 15.1263 1.87365L12.5808 4.41924C12.337 4.17544 12.2 3.84478 12.2 3.5H15.8ZM15.1263 1.87365C14.695 1.44232 14.11 1.2 13.5 1.2V4.8C13.1552 4.8 12.8246 4.66304 12.5808 4.41924L15.1263 1.87365ZM13.5 1.2H4.5V4.8H13.5V1.2ZM4.5 1.2C3.89 1.2 3.30499 1.44232 2.87365 1.87365L5.41924 4.41924C5.17544 4.66304 4.84478 4.8 4.5 4.8V1.2ZM2.87365 1.87365C2.44232 2.30499 2.2 2.89 2.2 3.5L5.8 3.5C5.8 3.84478 5.66304 4.17544 5.41924 4.41924L2.87365 1.87365ZM2.2 3.5C2.2 4.11 2.44232 4.69501 2.87365 5.12635L5.41924 2.58076C5.66304 2.82456 5.8 3.15522 5.8 3.5L2.2 3.5ZM2.87365 5.12635C3.30499 5.55768 3.89 5.8 4.5 5.8V2.2C4.84478 2.2 5.17544 2.33696 5.41924 2.58076L2.87365 5.12635Z" fill="white" mask="url(#path-3-inside-2_138_1952)"/>
<g filter="url(#filter0_d_138_1952)">
<mask id="path-5-inside-3_138_1952" fill="white">
<path d="M4.5 6H13.5C13.6326 6 13.7598 5.94732 13.8536 5.85355C13.9473 5.75979 14 5.63261 14 5.5C14 5.36739 13.9473 5.24021 13.8536 5.14645C13.7598 5.05268 13.6326 5 13.5 5H4.5C4.36739 5 4.24021 5.05268 4.14645 5.14645C4.05268 5.24021 4 5.36739 4 5.5C4 5.63261 4.05268 5.75979 4.14645 5.85355C4.24021 5.94732 4.36739 6 4.5 6Z"/>
</mask>
<path d="M4.5 6H13.5C13.6326 6 13.7598 5.94732 13.8536 5.85355C13.9473 5.75979 14 5.63261 14 5.5C14 5.36739 13.9473 5.24021 13.8536 5.14645C13.7598 5.05268 13.6326 5 13.5 5H4.5C4.36739 5 4.24021 5.05268 4.14645 5.14645C4.05268 5.24021 4 5.36739 4 5.5C4 5.63261 4.05268 5.75979 4.14645 5.85355C4.24021 5.94732 4.36739 6 4.5 6Z" fill="white"/>
<path d="M4 5.5L5.8 5.5L4 5.5ZM4.5 7.8H13.5V4.2H4.5V7.8ZM13.5 7.8C14.11 7.8 14.695 7.55768 15.1263 7.12635L12.5808 4.58076C12.8246 4.33696 13.1552 4.2 13.5 4.2V7.8ZM15.1263 7.12635C15.5577 6.69501 15.8 6.10999 15.8 5.5H12.2C12.2 5.15522 12.337 4.82456 12.5808 4.58076L15.1263 7.12635ZM15.8 5.5C15.8 4.89001 15.5577 4.30499 15.1263 3.87365L12.5808 6.41924C12.337 6.17544 12.2 5.84478 12.2 5.5H15.8ZM15.1263 3.87365C14.695 3.44232 14.11 3.2 13.5 3.2V6.8C13.1552 6.8 12.8246 6.66304 12.5808 6.41924L15.1263 3.87365ZM13.5 3.2H4.5V6.8H13.5V3.2ZM4.5 3.2C3.89001 3.2 3.30499 3.44232 2.87365 3.87365L5.41924 6.41924C5.17544 6.66304 4.84478 6.8 4.5 6.8V3.2ZM2.87365 3.87365C2.44232 4.30499 2.2 4.89 2.2 5.5L5.8 5.5C5.8 5.84478 5.66304 6.17544 5.41924 6.41924L2.87365 3.87365ZM2.2 5.5C2.2 6.11 2.44232 6.69501 2.87365 7.12635L5.41924 4.58076C5.66304 4.82456 5.8 5.15522 5.8 5.5L2.2 5.5ZM2.87365 7.12635C3.30499 7.55768 3.89001 7.8 4.5 7.8V4.2C4.84478 4.2 5.17544 4.33696 5.41924 4.58076L2.87365 7.12635Z" fill="white" mask="url(#path-5-inside-3_138_1952)"/>
</g>
<mask id="path-7-inside-4_138_1952" fill="white">
<path d="M4.5 8H9.5C9.63261 8 9.75979 7.94732 9.85355 7.85355C9.94732 7.75979 10 7.63261 10 7.5C10 7.36739 9.94732 7.24021 9.85355 7.14645C9.75979 7.05268 9.63261 7 9.5 7H4.5C4.36739 7 4.24021 7.05268 4.14645 7.14645C4.05268 7.24021 4 7.36739 4 7.5C4 7.63261 4.05268 7.75979 4.14645 7.85355C4.24021 7.94732 4.36739 8 4.5 8Z"/>
</mask>
<path d="M4.5 8H9.5C9.63261 8 9.75979 7.94732 9.85355 7.85355C9.94732 7.75979 10 7.63261 10 7.5C10 7.36739 9.94732 7.24021 9.85355 7.14645C9.75979 7.05268 9.63261 7 9.5 7H4.5C4.36739 7 4.24021 7.05268 4.14645 7.14645C4.05268 7.24021 4 7.36739 4 7.5C4 7.63261 4.05268 7.75979 4.14645 7.85355C4.24021 7.94732 4.36739 8 4.5 8Z" fill="white"/>
<path d="M4 7.5L5.8 7.5L4 7.5ZM4.5 9.8H9.5V6.2H4.5V9.8ZM9.5 9.8C10.11 9.8 10.695 9.55768 11.1263 9.12635L8.58076 6.58076C8.82456 6.33696 9.15522 6.2 9.5 6.2V9.8ZM11.1263 9.12635C11.5577 8.69501 11.8 8.10999 11.8 7.5H8.2C8.2 7.15522 8.33696 6.82456 8.58076 6.58076L11.1263 9.12635ZM11.8 7.5C11.8 6.89001 11.5577 6.30499 11.1263 5.87365L8.58076 8.41924C8.33696 8.17544 8.2 7.84478 8.2 7.5H11.8ZM11.1263 5.87365C10.695 5.44232 10.11 5.2 9.5 5.2V8.8C9.15522 8.8 8.82456 8.66304 8.58076 8.41924L11.1263 5.87365ZM9.5 5.2H4.5V8.8H9.5V5.2ZM4.5 5.2C3.89001 5.2 3.30499 5.44232 2.87365 5.87365L5.41924 8.41924C5.17544 8.66304 4.84478 8.8 4.5 8.8V5.2ZM2.87365 5.87365C2.44232 6.30499 2.2 6.89 2.2 7.5L5.8 7.5C5.8 7.84478 5.66304 8.17544 5.41924 8.41924L2.87365 5.87365ZM2.2 7.5C2.2 8.11 2.44232 8.69501 2.87365 9.12635L5.41924 6.58076C5.66304 6.82456 5.8 7.15522 5.8 7.5L2.2 7.5ZM2.87365 9.12635C3.30499 9.55768 3.89001 9.8 4.5 9.8V6.2C4.84478 6.2 5.17544 6.33696 5.41924 6.58076L2.87365 9.12635Z" fill="white" mask="url(#path-7-inside-4_138_1952)"/>
<defs>
<filter id="filter0_d_138_1952" x="0" y="5" width="18" height="9" filterUnits="userSpaceOnUse" color-interpolation-filters="sRGB">
<feFlood flood-opacity="0" result="BackgroundImageFix"/>
<feColorMatrix in="SourceAlpha" type="matrix" values="0 0 0 0 0 0 0 0 0 0 0 0 0 0 0 0 0 0 127 0" result="hardAlpha"/>
<feOffset dy="4"/>
<feGaussianBlur stdDeviation="2"/>
<feComposite in2="hardAlpha" operator="out"/>
<feColorMatrix type="matrix" values="0 0 0 0 0 0 0 0 0 0 0 0 0 0 0 0 0 0 0.25 0"/>
<feBlend mode="normal" in2="BackgroundImageFix" result="effect1_dropShadow_138_1952"/>
<feBlend mode="normal" in="SourceGraphic" in2="effect1_dropShadow_138_1952" result="shape"/>
</filter>
</defs>
</svg>
